<svg width="119" height="126" viewBox="0 0 119 126" fill="none" xmlns="http://www.w3.org/2000/svg">
<path d="M8.05825 108.672H11.8023C12.7089 108.672 13.5676 108.773 14.3783 108.976C15.1996 109.179 15.9143 109.509 16.5223 109.968C17.1303 110.416 17.6103 111.003 17.9623 111.728C18.3249 112.453 18.5063 113.333 18.5063 114.368C18.5063 115.285 18.3303 116.096 17.9783 116.8C17.6369 117.493 17.1729 118.08 16.5863 118.56C15.9996 119.029 15.3223 119.387 14.5543 119.632C13.7863 119.877 12.9809 120 12.1383 120H8.05825V108.672ZM10.5543 117.696H11.8503C12.4263 117.696 12.9596 117.637 13.4503 117.52C13.9516 117.403 14.3836 117.211 14.7463 116.944C15.1089 116.667 15.3916 116.309 15.5943 115.872C15.8076 115.424 15.9143 114.88 15.9143 114.24C15.9143 113.685 15.8076 113.205 15.5943 112.8C15.3916 112.384 15.1143 112.043 14.7623 111.776C14.4103 111.509 13.9943 111.312 13.5143 111.184C13.0449 111.045 12.5489 110.976 12.0263 110.976H10.5543V117.696ZM19.6069 116.112C19.6069 115.493 19.7189 114.933 19.9429 114.432C20.1669 113.931 20.4709 113.504 20.8549 113.152C21.2495 112.789 21.7082 112.512 22.2309 112.32C22.7642 112.128 23.3295 112.032 23.9269 112.032C24.5242 112.032 25.0842 112.128 25.6069 112.32C26.1402 112.512 26.5989 112.789 26.9829 113.152C27.3775 113.504 27.6869 113.931 27.9109 114.432C28.1349 114.933 28.2469 115.493 28.2469 116.112C28.2469 116.731 28.1349 117.291 27.9109 117.792C27.6869 118.293 27.3775 118.725 26.9829 119.088C26.5989 119.44 26.1402 119.712 25.6069 119.904C25.0842 120.096 24.5242 120.192 23.9269 120.192C23.3295 120.192 22.7642 120.096 22.2309 119.904C21.7082 119.712 21.2495 119.44 20.8549 119.088C20.4709 118.725 20.1669 118.293 19.9429 117.792C19.7189 117.291 19.6069 116.731 19.6069 116.112ZM22.0069 116.112C22.0069 116.699 22.1722 117.173 22.5029 117.536C22.8442 117.899 23.3189 118.08 23.9269 118.08C24.5349 118.08 25.0042 117.899 25.3349 117.536C25.6762 117.173 25.8469 116.699 25.8469 116.112C25.8469 115.525 25.6762 115.051 25.3349 114.688C25.0042 114.325 24.5349 114.144 23.9269 114.144C23.3189 114.144 22.8442 114.325 22.5029 114.688C22.1722 115.051 22.0069 115.525 22.0069 116.112ZM34.9245 114.736C34.8072 114.565 34.6418 114.427 34.4285 114.32C34.2152 114.203 33.9858 114.144 33.7405 114.144C33.1325 114.144 32.6578 114.325 32.3165 114.688C31.9858 115.051 31.8205 115.525 31.8205 116.112C31.8205 116.699 31.9858 117.173 32.3165 117.536C32.6578 117.899 33.1325 118.08 33.7405 118.08C34.0072 118.08 34.2365 118.021 34.4285 117.904C34.6205 117.787 34.7858 117.648 34.9245 117.488L36.5085 119.152C36.1352 119.536 35.6925 119.808 35.1805 119.968C34.6792 120.117 34.1992 120.192 33.7405 120.192C33.1432 120.192 32.5778 120.096 32.0445 119.904C31.5218 119.712 31.0632 119.44 30.6685 119.088C30.2845 118.725 29.9805 118.293 29.7565 117.792C29.5325 117.291 29.4205 116.731 29.4205 116.112C29.4205 115.493 29.5325 114.933 29.7565 114.432C29.9805 113.931 30.2845 113.504 30.6685 113.152C31.0632 112.789 31.5218 112.512 32.0445 112.32C32.5778 112.128 33.1432 112.032 33.7405 112.032C34.1992 112.032 34.6792 112.112 35.1805 112.272C35.6925 112.421 36.1352 112.688 36.5085 113.072L34.9245 114.736ZM44.8673 120H42.5633V118.944H42.5313C42.4459 119.093 42.3339 119.243 42.1953 119.392C42.0673 119.541 41.9073 119.675 41.7153 119.792C41.5233 119.909 41.3046 120.005 41.0593 120.08C40.8139 120.155 40.5473 120.192 40.2593 120.192C39.6513 120.192 39.1553 120.101 38.7713 119.92C38.3979 119.728 38.1046 119.467 37.8913 119.136C37.6886 118.805 37.5499 118.416 37.4753 117.968C37.4113 117.52 37.3793 117.035 37.3793 116.512V112.224H39.7793V116.032C39.7793 116.256 39.7846 116.491 39.7953 116.736C39.8166 116.971 39.8646 117.189 39.9393 117.392C40.0246 117.595 40.1473 117.76 40.3073 117.888C40.4779 118.016 40.7179 118.08 41.0273 118.08C41.3366 118.08 41.5873 118.027 41.7793 117.92C41.9713 117.803 42.1153 117.653 42.2113 117.472C42.3179 117.28 42.3873 117.067 42.4193 116.832C42.4513 116.597 42.4673 116.352 42.4673 116.096V112.224H44.8673V120ZM46.5668 112.224H48.8708V113.28H48.9028C48.9774 113.131 49.0841 112.981 49.2228 112.832C49.3614 112.683 49.5268 112.549 49.7188 112.432C49.9108 112.315 50.1294 112.219 50.3748 112.144C50.6201 112.069 50.8868 112.032 51.1748 112.032C51.7188 112.032 52.1988 112.144 52.6148 112.368C53.0414 112.592 53.3614 112.944 53.5748 113.424C53.8521 112.923 54.1881 112.565 54.5828 112.352C54.9774 112.139 55.4628 112.032 56.0388 112.032C56.5614 112.032 56.9988 112.123 57.3508 112.304C57.7134 112.475 57.9961 112.715 58.1988 113.024C58.4121 113.323 58.5614 113.68 58.6468 114.096C58.7428 114.501 58.7908 114.939 58.7908 115.408V120H56.3908V115.472C56.3908 115.109 56.3108 114.8 56.1508 114.544C56.0014 114.277 55.7294 114.144 55.3348 114.144C55.0574 114.144 54.8228 114.192 54.6308 114.288C54.4494 114.373 54.3001 114.496 54.1828 114.656C54.0761 114.816 53.9961 115.003 53.9427 115.216C53.9001 115.429 53.8788 115.653 53.8788 115.888V120H51.4788V115.888C51.4788 115.749 51.4734 115.579 51.4628 115.376C51.4521 115.173 51.4148 114.981 51.3508 114.8C51.2868 114.619 51.1801 114.464 51.0308 114.336C50.8921 114.208 50.6841 114.144 50.4068 114.144C50.0974 114.144 49.8468 114.203 49.6548 114.32C49.4628 114.427 49.3134 114.576 49.2068 114.768C49.1108 114.949 49.0468 115.157 49.0148 115.392C48.9828 115.627 48.9668 115.872 48.9668 116.128V120H46.5668V112.224ZM67.8486 118.656C67.4646 119.147 66.9793 119.525 66.3926 119.792C65.806 120.059 65.198 120.192 64.5686 120.192C63.9713 120.192 63.406 120.096 62.8726 119.904C62.35 119.712 61.8913 119.44 61.4966 119.088C61.1126 118.725 60.8086 118.293 60.5846 117.792C60.3606 117.291 60.2486 116.731 60.2486 116.112C60.2486 115.493 60.3606 114.933 60.5846 114.432C60.8086 113.931 61.1126 113.504 61.4966 113.152C61.8913 112.789 62.35 112.512 62.8726 112.32C63.406 112.128 63.9713 112.032 64.5686 112.032C65.1233 112.032 65.6246 112.128 66.0726 112.32C66.5313 112.512 66.9153 112.789 67.2246 113.152C67.5446 113.504 67.79 113.931 67.9606 114.432C68.1313 114.933 68.2166 115.493 68.2166 116.112V116.864H62.6486C62.7446 117.323 62.9526 117.691 63.2726 117.968C63.5926 118.235 63.9873 118.368 64.4566 118.368C64.8513 118.368 65.182 118.283 65.4486 118.112C65.726 117.931 65.966 117.701 66.1686 117.424L67.8486 118.656ZM65.8166 115.232C65.8273 114.827 65.694 114.48 65.4166 114.192C65.1393 113.904 64.782 113.76 64.3446 113.76C64.078 113.76 63.8433 113.803 63.6406 113.888C63.438 113.973 63.262 114.085 63.1126 114.224C62.974 114.352 62.862 114.507 62.7766 114.688C62.702 114.859 62.6593 115.04 62.6486 115.232H65.8166ZM69.6761 112.224H71.9801V113.28H72.0121C72.0868 113.131 72.1935 112.981 72.3321 112.832C72.4708 112.683 72.6361 112.549 72.8281 112.432C73.0201 112.315 73.2388 112.219 73.4841 112.144C73.7295 112.069 73.9961 112.032 74.2841 112.032C74.8921 112.032 75.3828 112.128 75.7561 112.32C76.1295 112.501 76.4175 112.757 76.6201 113.088C76.8335 113.419 76.9775 113.808 77.0521 114.256C77.1268 114.704 77.1641 115.189 77.1641 115.712V120H74.7641V116.192C74.7641 115.968 74.7535 115.739 74.7321 115.504C74.7215 115.259 74.6735 115.035 74.5881 114.832C74.5135 114.629 74.3908 114.464 74.2201 114.336C74.0601 114.208 73.8255 114.144 73.5161 114.144C73.2068 114.144 72.9561 114.203 72.7641 114.32C72.5721 114.427 72.4228 114.576 72.3161 114.768C72.2201 114.949 72.1561 115.157 72.1241 115.392C72.0921 115.627 72.0761 115.872 72.0761 116.128V120H69.6761V112.224ZM84.1596 114.144H82.0476V116.736C82.0476 116.949 82.0583 117.147 82.0796 117.328C82.101 117.499 82.149 117.648 82.2236 117.776C82.2983 117.904 82.4103 118.005 82.5596 118.08C82.7196 118.144 82.9276 118.176 83.1836 118.176C83.3116 118.176 83.477 118.165 83.6796 118.144C83.893 118.112 84.053 118.048 84.1596 117.952V119.952C83.893 120.048 83.6156 120.112 83.3276 120.144C83.0396 120.176 82.757 120.192 82.4796 120.192C82.0743 120.192 81.701 120.149 81.3596 120.064C81.0183 119.979 80.7196 119.845 80.4636 119.664C80.2076 119.472 80.005 119.227 79.8556 118.928C79.717 118.629 79.6476 118.267 79.6476 117.84V114.144H78.1116V112.224H79.6476V109.92H82.0476V112.224H84.1596V114.144ZM90.9456 114.144H89.3616V112.224H90.9456V110.848C90.9456 110.421 90.983 110.021 91.0576 109.648C91.1323 109.264 91.2763 108.928 91.4896 108.64C91.703 108.352 92.007 108.128 92.4016 107.968C92.807 107.797 93.335 107.712 93.9856 107.712C94.231 107.712 94.471 107.723 94.7056 107.744C94.9403 107.765 95.1696 107.803 95.3936 107.856L95.2816 109.888C95.143 109.835 95.015 109.797 94.8976 109.776C94.7803 109.744 94.647 109.728 94.4976 109.728C94.1136 109.728 93.8256 109.813 93.6336 109.984C93.4416 110.144 93.3456 110.48 93.3456 110.992V112.224H95.1216V114.144H93.3456V120H90.9456V114.144ZM100.916 119.024H100.884C100.617 119.44 100.26 119.739 99.8115 119.92C99.3742 120.101 98.9102 120.192 98.4195 120.192C98.0568 120.192 97.7048 120.139 97.3635 120.032C97.0328 119.936 96.7395 119.787 96.4835 119.584C96.2275 119.381 96.0248 119.131 95.8755 118.832C95.7262 118.533 95.6515 118.187 95.6515 117.792C95.6515 117.344 95.7315 116.965 95.8915 116.656C96.0622 116.347 96.2862 116.091 96.5635 115.888C96.8515 115.685 97.1768 115.531 97.5395 115.424C97.9022 115.307 98.2755 115.221 98.6595 115.168C99.0542 115.115 99.4435 115.083 99.8275 115.072C100.222 115.061 100.585 115.056 100.916 115.056C100.916 114.629 100.761 114.293 100.452 114.048C100.153 113.792 99.7955 113.664 99.3795 113.664C98.9848 113.664 98.6222 113.749 98.2915 113.92C97.9715 114.08 97.6835 114.304 97.4275 114.592L96.1475 113.28C96.5955 112.864 97.1182 112.555 97.7155 112.352C98.3128 112.139 98.9315 112.032 99.5715 112.032C100.276 112.032 100.852 112.123 101.3 112.304C101.758 112.475 102.121 112.731 102.388 113.072C102.665 113.413 102.857 113.835 102.964 114.336C103.07 114.827 103.124 115.397 103.124 116.048V120H100.916V119.024ZM100.324 116.592C100.142 116.592 99.9128 116.603 99.6355 116.624C99.3688 116.635 99.1075 116.677 98.8515 116.752C98.6062 116.827 98.3928 116.939 98.2115 117.088C98.0408 117.237 97.9555 117.445 97.9555 117.712C97.9555 118 98.0782 118.213 98.3235 118.352C98.5688 118.491 98.8248 118.56 99.0915 118.56C99.3262 118.56 99.5502 118.528 99.7635 118.464C99.9875 118.4 100.185 118.309 100.356 118.192C100.526 118.075 100.66 117.925 100.756 117.744C100.862 117.563 100.916 117.349 100.916 117.104V116.592H100.324ZM104.661 112.224H107.061V120H104.661V112.224ZM104.469 109.776C104.469 109.392 104.603 109.067 104.869 108.8C105.147 108.523 105.477 108.384 105.861 108.384C106.245 108.384 106.571 108.523 106.837 108.8C107.115 109.067 107.253 109.392 107.253 109.776C107.253 110.16 107.115 110.491 106.837 110.768C106.571 111.035 106.245 111.168 105.861 111.168C105.477 111.168 105.147 111.035 104.869 110.768C104.603 110.491 104.469 110.16 104.469 109.776ZM108.818 107.904H111.218V120H108.818V107.904Z" fill="#E5BB0D"/>
<path fill-rule="evenodd" clip-rule="evenodd" d="M15 45C15 20.1375 35.1375 0 60 0C84.8625 0 105 20.1375 105 45C105 69.8625 84.8625 90 60 90C35.1375 90 15 69.8625 15 45ZM60 36.9L43.125 20.025L35.025 28.125L51.9 45L35.025 61.875L43.125 69.975L60 53.1L76.875 69.975L84.975 61.875L68.1 45L84.975 28.125L76.875 20.025L60 36.9Z" fill="#FFCD00"/>
</svg>
